<svg width="32" height="32" viewBox="0 0 32 32" xmlns="http://www.w3.org/2000/svg">
<path d="M30.7691 6.8412C29.6707 7.32304 28.5002 7.64242 27.2799 7.7975C28.5353 7.04797 29.4934 5.87013 29.9439 4.45046C28.7734 5.1483 27.4811 5.64121 26.1039 5.91629C24.9925 4.73292 23.4086 4 21.6806 4C18.328 4 15.629 6.7212 15.629 10.0572C15.629 10.5372 15.6696 10.9987 15.7693 11.4381C10.7349 11.1925 6.28013 8.77964 3.28755 5.10399C2.76509 6.01044 2.45864 7.04797 2.45864 8.16488C2.45864 10.2621 3.53862 12.1211 5.14845 13.1974C4.17554 13.179 3.22109 12.8965 2.41248 12.4516C2.41248 12.4701 2.41248 12.4941 2.41248 12.5181C2.41248 15.4608 4.51154 17.9051 7.26412 18.4682C6.7712 18.6029 6.23398 18.6675 5.67645 18.6675C5.28876 18.6675 4.89738 18.6454 4.53 18.5641C5.31461 20.9623 7.54104 22.7253 10.1884 22.7826C8.12811 24.3942 5.51214 25.3653 2.68017 25.3653C2.18356 25.3653 1.70726 25.3432 1.23096 25.2822C3.91339 27.0121 7.09243 27.9997 10.5207 27.9997C21.664 27.9997 27.7562 18.7691 27.7562 10.7679C27.7562 10.5002 27.747 10.2418 27.7341 9.98517C28.9359 9.13225 29.9457 8.06703 30.7691 6.8412Z"/>
</svg>
